PathFileType	4	(X/Y/Z)	Kaydara	
DataRate	CameraRate	NumFrames	NumMarkers	Units	OrigDataRate	OrigDataStartFrame	OrigNumFrames	
240.00	240.00	4	72	mm	240.00	225	359	
Frame#	Time	Hips			RightUpLeg			RightLeg			RightFoot			RightFoot_End			LeftUpLeg			LeftLeg			LeftFoot			LeftFoot_End			Spine			Spine1			Spine2			Spine3			Neck			Head			Head_End			RightShoulder			RightArm			RightForeArm			RightHand			RightHandThumb1			RightHandThumb2			RightHandThumb3			RightHandThumb3_End			RightInHandIndex			RightHandIndex1			RightHandIndex2			RightHandIndex3			RightHandIndex3_End			RightInHandMiddle			RightHandMiddle1			RightHandMiddle2			RightHandMiddle3			RightHandMiddle3_End			RightInHandRing			RightHandRing1			RightHandRing2			RightHandRing3			RightHandRing3_End			RightInHandPinky			RightHandPinky1			RightHandPinky2			RightHandPinky3			RightHandPinky3_End			LeftShoulder			LeftArm			LeftForeArm			LeftHand			LeftHandThumb1			LeftHandThumb2			LeftHandThumb3			LeftHandThumb3_End			LeftInHandIndex			LeftHandIndex1			LeftHandIndex2			LeftHandIndex3			LeftHandIndex3_End			LeftInHandMiddle			LeftHandMiddle1			LeftHandMiddle2			LeftHandMiddle3			LeftHandMiddle3_End			LeftInHandRing			LeftHandRing1			LeftHandRing2			LeftHandRing3			LeftHandRing3_End			LeftInHandPinky			LeftHandPinky1			LeftHandPinky2			LeftHandPinky3			LeftHandPinky3_End			
		X1	Y1	Z1	X2	Y2	Z2	X3	Y3	Z3	X4	Y4	Z4	X5	Y5	Z5	X6	Y6	Z6	X7	Y7	Z7	X8	Y8	Z8	X9	Y9	Z9	X10	Y10	Z10	X11	Y11	Z11	X12	Y12	Z12	X13	Y13	Z13	X14	Y14	Z14	X15	Y15	Z15	X16	Y16	Z16	X17	Y17	Z17	X18	Y18	Z18	X19	Y19	Z19	X20	Y20	Z20	X21	Y21	Z21	X22	Y22	Z22	X23	Y23	Z23	X24	Y24	Z24	X25	Y25	Z25	X26	Y26	Z26	X27	Y27	Z27	X28	Y28	Z28	X29	Y29	Z29	X30	Y30	Z30	X31	Y31	Z31	X32	Y32	Z32	X33	Y33	Z33	X34	Y34	Z34	X35	Y35	Z35	X36	Y36	Z36	X37	Y37	Z37	X38	Y38	Z38	X39	Y39	Z39	X40	Y40	Z40	X41	Y41	Z41	X42	Y42	Z42	X43	Y43	Z43	X44	Y44	Z44	X45	Y45	Z45	X46	Y46	Z46	X47	Y47	Z47	X48	Y48	Z48	X49	Y49	Z49	X50	Y50	Z50	X51	Y51	Z51	X52	Y52	Z52	X53	Y53	Z53	X54	Y54	Z54	X55	Y55	Z55	X56	Y56	Z56	X57	Y57	Z57	X58	Y58	Z58	X59	Y59	Z59	X60	Y60	Z60	X61	Y61	Z61	X62	Y62	Z62	X63	Y63	Z63	X64	Y64	Z64	X65	Y65	Z65	X66	Y66	Z66	X67	Y67	Z67	X68	Y68	Z68	X69	Y69	Z69	X70	Y70	Z70	X71	Y71	Z71	X72	Y72	Z72	

225	0.933	1198.941	914.58397	126.699	1248.8182018622686	891.4525420901768	51.933344310477146	1152.6363095231243	496.49317285600375	-49.16278521878773	1141.9797513942246	105.24083032582634	-126.19849789828254	990.8313735643247	28.497953954022165	-37.864894561034575	1162.7395049296856	911.3877256178127	213.17792497827602	1071.1362588274612	509.0497439662646	284.77943449692265	993.0084609946427	84.14650732606303	366.9190505792681	872.0062477506922	1.3605900739596812	244.2714577053031	1135.3553146643053	1033.0365742045042	77.80496943822959	1074.939305532344	1089.29691999252	26.623984919053093	1009.0798193027853	1140.9685096797286	-30.19395653388221	942.2600080429518	1179.4318426548548	-89.32098255219664	869.681177926439	1220.9195951899023	-150.86135989605788	802.0448252058981	1259.2695642022845	-204.38380177759146	665.2804680074705	1339.1361026231841	-219.38227229180595	909.8968214505903	1200.4233587722933	-153.70893404185736	944.802250846859	1152.7228535009733	-248.59882202474222	969.4251025747777	941.6792564069116	-190.0067832432828	932.4676772218126	822.2260223070047	-280.00832365338425	934.7460182956901	836.1145054755028	-289.5849831341754	926.6354127940104	840.0323687320129	-299.53691659623667	920.9524562383054	839.2638592777582	-306.69730640245973	916.1850973236768	835.6316590363617	-312.86322303145363	935.9246776612049	824.8730832812282	-291.5066321659554	936.3400244272192	815.8623347199294	-308.9832027372647	930.7845598088545	809.4858768009434	-319.9750215103384	924.118756806114	809.0112685996129	-324.62298600533654	916.434889285773	810.972302692809	-326.99581647083943	935.537955843155	815.6706494843231	-291.46787124838966	935.7355351539433	801.9042619176057	-308.49336524673686	929.6137556628571	793.7611204357246	-320.42435851957356	921.54305939092	792.6198195016735	-326.00159928458766	913.1215798549257	794.4890832696275	-328.58313215076697	935.313327963852	809.3754833524999	-291.0113749666878	935.4686203001692	791.5044102126798	-305.9226738379353	930.0708857517648	783.2174476244187	-316.23010500007115	922.253153530299	781.4849436196417	-321.5610886457615	914.3192347871856	782.9432123246962	-323.96531913926196	934.5760427326416	802.5667539641928	-289.84609755872	934.4627251838076	781.8959373292283	-302.86648462490473	930.0426404156277	773.4825694401353	-310.91210781644384	924.2930426846907	771.3590584495298	-314.69984707780316	917.2376713936216	772.1560126754641	-316.7716460828973	877.7749151644286	1214.2080434656766	-106.06084030587665	840.161525992335	1197.8096321495266	-3.2438314900618197	920.3327462503247	1014.4664059779718	-84.56826400175791	940.9999671598312	868.7530477908108	-211.03375531347248	950.834262339975	876.9830734467452	-221.30487424581375	967.9414017317033	866.401347341211	-230.44910324113525	979.5173117109879	855.9233006165911	-237.24253357552962	988.8789060518577	844.5285878806766	-243.2698275517829	949.839526800093	867.5555760986047	-224.22813342824912	965.073287889306	850.0268042186852	-243.99593268984935	979.3447357941848	832.6892835314615	-255.3166949609563	989.3247435633623	822.9823096643552	-259.1374394272328	998.3322072738582	815.6707828492115	-260.12964757580943	948.5657655737676	859.465593902787	-224.58132490223255	962.7342924174151	837.9941542350879	-244.05397021444122	978.094385173517	818.058454009	-256.38662046375117	990.032741805352	805.8593080355676	-260.9863263273452	999.8388650400659	797.6219142784076	-262.0671821965362	947.2406704178311	854.225704850951	-224.35785388542268	958.6815996887395	830.5174045883981	-241.7072518580019	971.829989165774	812.135407766248	-252.4043854836971	983.2182686792534	799.8341331748109	-256.81351872577204	992.3782296688408	791.8357555131071	-257.8166906780147	945.5591748668552	848.470759955833	-223.2798819650414	954.8987220036652	823.2672915408411	-238.6399762802674	965.0041403438381	807.0814298485462	-247.0487479841449	973.1060348310291	797.3995653985532	-250.188801427704	981.1024092905318	789.9060983664066	-251.0337121578672
226	0.938	1198.941	914.58397	126.699	1248.7502632919925	891.3814815251847	51.9189808755338	1152.5235316685068	496.4308688247908	-49.16629726121573	1141.952327323179	105.17826008758449	-126.20125016858901	990.7693855981463	28.423262750352354	-37.93724976900992	1162.7986485973279	911.4569399658523	213.19792578641952	1071.2011072377836	509.1126143610692	284.7707082158221	993.0226338098414	84.19927455465894	366.7991275012894	872.022223911435	1.4087083221282153	244.15296704569496	1135.3976363462534	1033.048261198813	77.78069428002486	1075.0004185966548	1089.304544787599	26.573129208300568	1009.1562482966233	1140.9711754873013	-30.267273317064213	942.3427939385796	1179.432589025305	-89.40322117896382	869.7703792049854	1220.9174891075945	-150.95360759903122	802.1424632705048	1259.2685161843242	-204.4864605307349	665.410849692871	1339.174846516215	-219.5387713217963	909.9188994860027	1200.3034371351393	-153.79426966857352	944.4969054831922	1152.1772510059388	-248.47437511990387	968.5196559880405	941.6723983477016	-188.8248169367907	931.0231123010635	822.2200389021162	-277.2726566276895	933.2501253539235	836.0948031190022	-286.65297851909315	925.2300610021125	839.9726234718331	-296.38807414317364	919.609876626239	839.1745002072907	-303.39575498067177	914.8946269010341	835.5161466269076	-309.432901706882	934.4075229528269	824.8477811873013	-288.5483992830513	934.7783919663041	815.7931896688357	-305.6875553030843	929.2752120576022	809.3764469503429	-316.4558000906747	922.6912570687222	808.876226464772	-320.998489294264	915.1084117216434	810.8157040619172	-323.30693397786524	934.0255628508445	815.6417109281504	-288.51726408494767	934.1823419952834	801.8306012114729	-305.21778296833054	928.1184750207838	793.6431634425984	-316.9069267337789	920.1469478675492	792.4708104676366	-322.35816369157976	911.8362133403497	794.3163804879865	-324.86974286004624	933.804594694574	809.3451809224218	-288.0745693829407	933.9239660720635	791.4330830342425	-302.7060680335372	928.5776873601525	783.1072112440152	-312.8053661092334	920.8561224075482	781.3445992097527	-318.01624086366786	913.026588020678	782.7805366725815	-320.35535860731346	933.0795389306455	802.5355226484746	-286.9365025723781	932.937932965205	781.826758840918	-299.71626112175227	928.5607238537216	773.3819705099337	-307.600615542291	922.8820960102244	771.2363783819928	-311.3033596385869	915.9196462160107	772.0134637312433	-313.3189838203542	877.9299168943953	1214.3287072151977	-106.15498641168831	840.5539071460222	1198.624595636895	-3.1827573760935377	920.2814097266045	1015.0736589371176	-83.45102356258084	939.9760480931669	868.802162445512	-208.77166995067816	949.5920545444757	877.0072296374727	-218.95277373791512	966.4471383321571	866.4180253911245	-228.0974394250039	977.8537560879975	855.9340668869766	-234.88352229689545	987.0795587887222	844.5338241480938	-240.89813287464716	948.6014128624553	867.5724147500075	-221.82665812377596	963.5235414099034	850.0025419845969	-241.41222844432158	977.5689410410065	832.6497772378568	-252.67918592899764	987.4224664550537	822.9444218451905	-256.5269247664181	996.3347156549349	815.6417135342584	-257.58226026892663	947.3550472687662	859.4825808867753	-222.16883227736764	961.2344468633966	837.9711285257017	-241.45776969741283	976.3524864760318	818.0189600922055	-253.73093574009178	988.1404553650318	805.8218499379537	-258.3628360754698	997.8434818684542	797.5941452782397	-259.51257560912217	946.0573329857464	854.2436988758604	-221.94140772499688	957.2631299612968	830.4999736002425	-239.1203035872068	970.2057078343639	812.1038621048508	-249.765100353609	981.4516757181931	799.8046812921068	-254.20502570440377	990.5159945506215	791.8154696545381	-255.2728443525707	944.4158540810089	848.4922677986633	-220.87066932278302	953.5645501876033	823.2579676287655	-236.07599868096426	963.5142581160018	807.0613262372337	-244.44285107521947	971.516746098419	797.3812450699442	-247.6053583122398	979.4309354569399	789.8960539998938	-248.5075330097905
227	0.942	1198.941	914.58397	126.699	1248.6811694369749	891.3099635067178	51.903713500527644	1152.3835242218386	496.3415533429625	-49.042405229913605	1141.9235257446262	105.08948945793459	-126.08635203685967	990.7229540705063	28.321961611815105	-37.863362899258256	1162.8588656379686	911.5264598990877	213.21858716908366	1071.2742085410905	509.17393845685194	284.7614664237134	993.045420836593	84.2506420485597	366.6796594728747	872.0524542397051	1.4563143022268061	244.02874547513179	1135.440291360127	1033.0606229147065	77.75756249937878	1075.0531616504466	1089.309538587239	26.529991708474167	1009.2160574172378	1140.9678320329695	-30.32649100902959	942.4051620029232	1179.4259490301783	-89.46807813481728	869.8353296315604	1220.9062837301008	-151.02519903435854	802.2118098472299	1259.2554910823403	-204.56550473545897	665.5084296652944	1339.183362822488	-219.7340190080041	909.930151765643	1200.2049033020594	-153.8564241515445	944.1765109909712	1151.6521911460277	-248.32773263389566	967.6015361271058	941.6855354178092	-187.59605111553986	929.551835722657	822.2351759556564	-274.48070420941445	931.7223657440167	836.0976003683622	-283.6586531386417	923.7906101529404	839.9368024125021	-293.1711895144534	918.2323113368068	839.1104964742748	-300.02247691036285	913.5689691797402	835.4275282731545	-305.9280391509272	932.8602185523075	824.8467875882226	-285.5283433662876	933.1844569365555	815.7540546536599	-302.3229397784118	927.7328909353278	809.3000789206556	-312.8627779811426	921.2304694677789	808.7748720293022	-317.2976132229746	913.7484794751415	810.6924073166731	-319.53979805005685	932.4849136874911	815.6380079075717	-285.5059375574556	932.5997737951662	801.7882299600944	-301.8750895190791	926.5933671020955	793.5599142939085	-313.317291626695	918.7207604744469	792.3572831235329	-318.63949621447597	910.5206448343071	794.1788018037843	-321.07910732847984	932.2689653936136	809.3406301797922	-285.0780095911782	932.3526373956452	791.393401346005	-299.424782840253	927.0576748455967	783.0317149558007	-309.31170507148954	919.4321704878394	781.2397989196103	-314.399628997805	911.706948857697	782.6530620334738	-316.6718171585956	931.557837008017	802.5303698053943	-283.96846120362045	931.3891727074001	781.7893184114888	-296.50390738649605	927.0551384455839	773.3156916582934	-304.22389748034976	921.4475987490143	771.1486426994078	-307.8397155888088	914.5781372468101	771.9056154327825	-309.79763653595853	878.0491580199471	1214.4100873479915	-106.23293128274175	840.9011208288466	1199.3585497313506	-3.140589717704658	920.1465059377635	1015.5717615371798	-82.30865566789149	938.9337860213734	868.8977081954376	-206.60048621088436	948.3287455496809	877.0798314703264	-216.69113273701623	964.9306193126554	866.4854412808196	-225.83685325597844	976.1673747427293	855.9971725037135	-232.61603305664087	985.2570879190857	844.5927562877343	-238.6183577882023	947.3425435253736	867.6379491212892	-219.5155918125194	961.950752258217	850.0304291790532	-238.91873958676302	975.7692754323101	832.664745136794	-250.13232048084126	985.496222431496	822.9621349587798	-254.0076301038975	994.313483126569	815.6689713200903	-255.12675810355861	946.1242700005096	859.5481896197023	-219.84685627889547	959.7126740846805	838.0000409716887	-238.95192951843592	974.5878616618477	818.0339213329923	-251.16610597096573	986.2253825307461	805.8401933569652	-255.83090292960696	995.8255683161004	797.6229678238054	-257.0502776935505	944.8544769853178	854.310158249006	-219.61554159010583	955.8239158796966	830.533867689614	-236.62386157963076	968.5600932339819	812.125808966917	-247.21675975328006	979.663757192923	799.8300063424539	-251.68817905830872	988.6327061216311	791.8506930411849	-252.82134960191343	943.2537633062353	848.5619748882273	-218.55217737559934	952.2109162582534	823.2992989221159	-233.60275084553072	962.0046147715304	807.0935617159088	-241.92805542176433	969.9077836414239	797.4161628214057	-245.11353209528315	977.7400737713508	789.9398694121772	-246.07360728825492
228	0.946	1198.941	914.58397	126.699	1248.615737003323	891.2418828528231	51.889978521071406	1152.2266665497975	496.23322615119673	-48.810337150075426	1141.8961371852808	104.98236528013658	-125.8704697173006	990.6843972461255	28.20030685094933	-37.679166547652095	1162.9160059606445	911.5928272465236	213.23770184541715	1071.3248945289995	509.2343999546266	284.7377818273494	993.0225266543417	84.30258165864413	366.5329443472108	872.0410746516117	1.5126286752506564	243.8677801433017	1135.4802606580636	1033.0715488927674	77.73441097973479	1075.0990630999256	1089.3129968804515	26.491610286202697	1009.2664707390231	1140.964493470936	-30.376531396077734	942.4593662825295	1179.4229776213283	-89.52264462894435	869.8937589269876	1220.9026839396222	-151.0857238494833	802.2756547929794	1259.2527246068241	-204.6328215630938	665.6002093425884	1339.1949540688665	-219.95712025035974	909.9453466292767	1200.137184800651	-153.9038137967358	943.8579861209558	1151.1594279998853	-248.16693259486095	966.6764632716911	941.7318201072238	-186.33901310855515	928.0652263996112	822.2872611113671	-271.6535847480416	930.1757771542414	836.136786026633	-280.62314319035164	922.3312425595259	839.938663521283	-289.90715272971903	916.8344826223906	839.0855717044296	-296.5980964878724	912.2231510231737	835.3796130936945	-302.3689790293398	931.2951435453346	824.883952996975	-282.46725768257954	931.5713273997955	815.7569016654572	-298.90926386494834	926.171202150576	809.2684387727516	-309.2153311811074	919.7504348955456	808.7192674316649	-313.5395280987379	912.3695218032037	810.6152765069645	-315.7135633813217	930.9277528291967	815.6737268768809	-282.45442073012697	930.9999950778551	801.7896991174714	-298.484842784222	925.0510302619657	793.5236527280603	-309.67437510208094	917.2775631221385	792.2920686351619	-314.86426747001144	909.1883553257762	794.0900062458578	-317.22986219610675	930.7177577377556	809.3762935960865	-282.0420582193002	930.7658653524034	791.3986071698108	-296.0981966289944	925.5223847406086	783.0039835460713	-305.7679025972958	917.9932600314584	781.1841221769718	-310.72980778642756	910.3726830247878	782.5752101934582	-312.9331480372641	930.0217104893493	802.566207771498	-280.9622019297111	929.8268011691385	781.7976364651813	-293.2486066023911	925.5363608873512	773.2977133967604	-300.8006393188911	920.0002525646502	771.1103138406326	-304.32741592872526	913.2241446896955	771.8476405556102	-306.2260129183067	878.1497429862303	1214.472531826201	-106.30384773511621	841.2159153666222	1200.0335342870817	-3.128808489221919	919.9264158516191	1015.9687236389221	-81.14775729319956	937.8582028167752	868.9975627859044	-204.53011494468987	947.0303242949351	877.1567162434288	-214.53022803997175	963.3771730174636	866.5570052630908	-223.67816472598793	974.4427353457511	856.0644912163045	-230.45129915399596	983.395243788667	844.6560523243626	-236.44208891136503	946.0482501841556	867.7083281302615	-217.30523798420023	960.3393863544582	850.0642145560299	-236.52642629919072	973.9290424125116	832.6860432471644	-247.6876079162042	983.5285632076235	822.9860641158535	-251.5913796186349	992.2503835354544	815.7020981721497	-252.7752597836756	944.858102289715	859.6189552347482	-217.62569852550993	958.1524493276447	838.0353271988467	-236.54742257689594	972.7826252594241	818.0557625115844	-248.70367079513892	984.2686869927676	805.8653158890183	-253.4024672014959	993.7655388764465	797.65819921792	-254.69250208205895	943.6163242401101	854.3819922742109	-217.39054423197337	954.3467412016253	830.5744187251156	-234.22877289498405	966.8746641046564	812.1548870299299	-244.77070808959746	977.8350386477701	799.8623720218922	-249.27467424245893	986.7081645117349	791.892632545601	-250.47417946909798	942.0566033630967	848.6372232846524	-216.33464354439926	950.8198977829029	823.3474639966423	-231.23093264926527	960.4561454150524	807.1330658871515	-239.51546169038704	968.2592919682423	797.4583206357744	-242.72469825123449	976.0092851270214	789.9906546452876	-243.74353173860953
